# xmcd
#
# Track frame offsets:
#	150
#	15102
#	28885
#	45810
#	60558
#	75758
#	92960
#	107522
#	119954
#	136721
#	155550
#
# Disc length: 2355 seconds
#
# Revision: 1
# Processed by: cddbd v1.5.2PL0 Copyright (c) Steve Scherf et al.
# Submitted via: audiograbber 1.83.01
#
DISCID=7909310b
DTITLE=Puhuva Kone - Jokainen Tavallaan
DYEAR=2010
DGENRE=Rap
TTITLE0=Sataseen
TTITLE1=Puhuva Kone
TTITLE2=Jokainen Tavallaan
TTITLE3=Ulos
TTITLE4=Pitäs Vaan
TTITLE5=Lintu
TTITLE6=Luuta Ja Verta
TTITLE7=HS
TTITLE8=Kaks Tähtee Ja Kirsikkapuska
TTITLE9=Päläpälä
TTITLE10=Ei Oo (feat. Elastinen)
EXTD=
EXTT0=
EXTT1=
EXTT2=
EXTT3=
EXTT4=
EXTT5=
EXTT6=
EXTT7=
EXTT8=
EXTT9=
EXTT10=
PLAYORDER=
